<svg width="126" height="64" viewBox="0 0 126 64" fill="none" xmlns="http://www.w3.org/2000/svg">
<path fill-rule="evenodd" clip-rule="evenodd" d="M93.0109 0.68228C93.5539 0.581633 93.9941 0.94776 93.9941 1.50004V8.50108C93.9941 9.05296 93.5545 9.58198 93.0119 9.68312L68.4299 14.2649V28.2381L93.0111 23.6823C93.5542 23.5816 93.9944 23.9478 93.9944 24.5V31.5C93.9944 32.0523 93.5542 32.5816 93.0111 32.6823L67.5289 37.4051C67.5035 37.4119 67.4777 37.4178 67.4518 37.4226L67.0562 37.4967C66.9594 37.5147 66.8629 37.5313 66.7668 37.5464L66.5387 37.5887C66.4675 37.6018 66.3981 37.607 66.3312 37.6048C61.7366 38.117 58.0591 35.2229 58.0591 31.754V27.9995L40.8986 31.18V41.3408C40.8986 41.893 40.4584 42.4224 39.9154 42.523L33.0326 43.7986C32.4895 43.8993 32.0493 43.5332 32.0493 42.9809V12.9809C32.0493 12.4286 32.4895 11.8993 33.0326 11.7986L39.9154 10.523C40.4584 10.4223 40.8986 10.7885 40.8986 11.3408V21.2042L58.0591 18.0237V8.15311C58.0591 7.60082 58.4993 7.07868 59.0423 6.97804L67.4466 5.4204C67.9896 5.31975 68.4299 5.68588 68.4299 6.23816V11.283L75.2098 4.21676C75.3871 4.03197 75.6115 3.90706 75.8434 3.86409L93.0109 0.68228Z" fill="url(#paint0_linear_2470_2144)"/>
<path d="M58.198 48.8848C58.958 48.8848 59.618 48.9648 60.178 49.1248C60.7513 49.2848 61.1913 49.5115 61.498 49.8048C61.818 50.0848 61.978 50.4248 61.978 50.8248C61.978 51.0915 61.898 51.3448 61.738 51.5848C61.578 51.8115 61.3447 51.9248 61.038 51.9248C60.8247 51.9248 60.6447 51.8982 60.498 51.8448C60.3647 51.7782 60.2447 51.6982 60.138 51.6048C60.0313 51.5115 59.9047 51.4248 59.758 51.3448C59.6247 51.2648 59.418 51.2048 59.138 51.1648C58.8713 51.1115 58.6713 51.0848 58.538 51.0848C57.858 51.0848 57.278 51.2315 56.798 51.5248C56.3313 51.8182 55.9713 52.2182 55.718 52.7248C55.4647 53.2182 55.338 53.7915 55.338 54.4448C55.338 55.0848 55.4647 55.6582 55.718 56.1648C55.9847 56.6582 56.3447 57.0515 56.798 57.3448C57.2647 57.6382 57.798 57.7848 58.398 57.7848C58.7313 57.7848 59.018 57.7648 59.258 57.7248C59.498 57.6848 59.698 57.6248 59.858 57.5448C60.0447 57.4382 60.2113 57.3248 60.358 57.2048C60.5047 57.0848 60.7247 57.0248 61.018 57.0248C61.3647 57.0248 61.6313 57.1382 61.818 57.3648C62.0047 57.5782 62.098 57.8448 62.098 58.1648C62.098 58.4982 61.9113 58.8048 61.538 59.0848C61.1647 59.3515 60.6713 59.5715 60.058 59.7448C59.458 59.9048 58.8047 59.9848 58.098 59.9848C57.0447 59.9848 56.1313 59.7448 55.358 59.2648C54.5847 58.7715 53.9847 58.1048 53.558 57.2648C53.1447 56.4248 52.938 55.4848 52.938 54.4448C52.938 53.3515 53.158 52.3915 53.598 51.5648C54.0513 50.7248 54.6713 50.0715 55.458 49.6048C56.258 49.1248 57.1713 48.8848 58.198 48.8848Z" fill="#0066FF"/>
<path d="M74.2086 54.4448C74.2086 55.5382 73.962 56.5048 73.4686 57.3448C72.9886 58.1715 72.3353 58.8182 71.5086 59.2848C70.6953 59.7515 69.7819 59.9848 68.7686 59.9848C67.7553 59.9848 66.8353 59.7515 66.0086 59.2848C65.1953 58.8182 64.5419 58.1715 64.0486 57.3448C63.5686 56.5048 63.3286 55.5382 63.3286 54.4448C63.3286 53.3515 63.5686 52.3915 64.0486 51.5648C64.5419 50.7248 65.1953 50.0715 66.0086 49.6048C66.8353 49.1248 67.7553 48.8848 68.7686 48.8848C69.7819 48.8848 70.6953 49.1248 71.5086 49.6048C72.3353 50.0715 72.9886 50.7248 73.4686 51.5648C73.962 52.3915 74.2086 53.3515 74.2086 54.4448ZM71.8086 54.4448C71.8086 53.7648 71.6686 53.1782 71.3886 52.6848C71.1219 52.1782 70.7553 51.7848 70.2886 51.5048C69.8353 51.2248 69.3286 51.0848 68.7686 51.0848C68.2086 51.0848 67.6953 51.2248 67.2286 51.5048C66.7753 51.7848 66.4086 52.1782 66.1286 52.6848C65.8619 53.1782 65.7286 53.7648 65.7286 54.4448C65.7286 55.1115 65.8619 55.6982 66.1286 56.2048C66.4086 56.6982 66.7753 57.0848 67.2286 57.3648C67.6953 57.6448 68.2086 57.7848 68.7686 57.7848C69.3286 57.7848 69.8353 57.6448 70.2886 57.3648C70.7553 57.0848 71.1219 56.6982 71.3886 56.2048C71.6686 55.6982 71.8086 55.1115 71.8086 54.4448Z" fill="#0066FF"/>
<path d="M82.0291 48.8848C83.0157 48.8848 83.7624 49.0915 84.2691 49.5048C84.7891 49.9182 85.1424 50.4715 85.3291 51.1648C85.5291 51.8448 85.6291 52.6048 85.6291 53.4448V58.5648C85.6291 58.9115 85.5157 59.2048 85.2891 59.4448C85.0624 59.6715 84.7757 59.7848 84.4291 59.7848C84.0824 59.7848 83.7957 59.6715 83.5691 59.4448C83.3424 59.2048 83.2291 58.9115 83.2291 58.5648V53.4448C83.2291 53.0048 83.1691 52.6115 83.0491 52.2648C82.9424 51.9048 82.7424 51.6182 82.4491 51.4048C82.1558 51.1915 81.7358 51.0848 81.1891 51.0848C80.6558 51.0848 80.2024 51.1915 79.8291 51.4048C79.4691 51.6182 79.1891 51.9048 78.9891 52.2648C78.8024 52.6115 78.7091 53.0048 78.7091 53.4448V58.5648C78.7091 58.9115 78.5958 59.2048 78.3691 59.4448C78.1424 59.6715 77.8557 59.7848 77.5091 59.7848C77.1624 59.7848 76.8757 59.6715 76.6491 59.4448C76.4224 59.2048 76.3091 58.9115 76.3091 58.5648V50.3048C76.3091 49.9582 76.4224 49.6715 76.6491 49.4448C76.8757 49.2048 77.1624 49.0848 77.5091 49.0848C77.8557 49.0848 78.1424 49.2048 78.3691 49.4448C78.5958 49.6715 78.7091 49.9582 78.7091 50.3048V51.1648L78.4091 51.1048C78.5291 50.8782 78.7024 50.6382 78.9291 50.3848C79.1557 50.1182 79.4224 49.8715 79.7291 49.6448C80.0358 49.4182 80.3824 49.2382 80.7691 49.1048C81.1558 48.9582 81.5757 48.8848 82.0291 48.8848Z" fill="#0066FF"/>
<path d="M88.3431 49.2848H93.0831C93.4031 49.2848 93.6698 49.3915 93.8831 49.6048C94.0965 49.8182 94.2031 50.0848 94.2031 50.4048C94.2031 50.7115 94.0965 50.9715 93.8831 51.1848C93.6698 51.3848 93.4031 51.4848 93.0831 51.4848H88.3431C88.0231 51.4848 87.7565 51.3782 87.5431 51.1648C87.3298 50.9515 87.2231 50.6848 87.2231 50.3648C87.2231 50.0582 87.3298 49.8048 87.5431 49.6048C87.7565 49.3915 88.0231 49.2848 88.3431 49.2848ZM90.4831 46.7848C90.8298 46.7848 91.1098 46.9048 91.3231 47.1448C91.5498 47.3715 91.6631 47.6582 91.6631 48.0048V56.9048C91.6631 57.0915 91.6965 57.2448 91.7631 57.3648C91.8432 57.4848 91.9431 57.5715 92.0631 57.6248C92.1965 57.6782 92.3365 57.7048 92.4831 57.7048C92.6431 57.7048 92.7898 57.6782 92.9231 57.6248C93.0565 57.5582 93.2098 57.5248 93.3831 57.5248C93.5698 57.5248 93.7365 57.6115 93.8831 57.7848C94.0431 57.9582 94.1231 58.1982 94.1231 58.5048C94.1231 58.8782 93.9165 59.1848 93.5031 59.4248C93.1031 59.6648 92.6698 59.7848 92.2031 59.7848C91.9231 59.7848 91.6098 59.7648 91.2631 59.7248C90.9298 59.6715 90.6098 59.5582 90.3031 59.3848C90.0098 59.1982 89.7631 58.9182 89.5631 58.5448C89.3631 58.1715 89.2631 57.6582 89.2631 57.0048V48.0048C89.2631 47.6582 89.3765 47.3715 89.6031 47.1448C89.8431 46.9048 90.1365 46.7848 90.4831 46.7848Z" fill="#0066FF"/>
<path d="M101.349 59.9848C100.216 59.9848 99.2291 59.7515 98.3891 59.2848C97.5624 58.8048 96.9224 58.1582 96.4691 57.3448C96.0291 56.5315 95.8091 55.6115 95.8091 54.5848C95.8091 53.3848 96.0491 52.3648 96.5291 51.5248C97.0224 50.6715 97.6624 50.0182 98.4491 49.5648C99.2358 49.1115 100.069 48.8848 100.949 48.8848C101.629 48.8848 102.269 49.0248 102.869 49.3048C103.482 49.5848 104.022 49.9715 104.489 50.4648C104.956 50.9448 105.322 51.5048 105.589 52.1448C105.869 52.7848 106.009 53.4648 106.009 54.1848C105.996 54.5048 105.869 54.7648 105.629 54.9648C105.389 55.1648 105.109 55.2648 104.789 55.2648H97.1491L96.5491 53.2648H103.889L103.449 53.6648V53.1248C103.422 52.7382 103.282 52.3915 103.029 52.0848C102.789 51.7782 102.482 51.5382 102.109 51.3648C101.749 51.1782 101.362 51.0848 100.949 51.0848C100.549 51.0848 100.176 51.1382 99.8291 51.2448C99.4824 51.3515 99.1824 51.5315 98.9291 51.7848C98.6757 52.0382 98.4757 52.3782 98.3291 52.8048C98.1824 53.2315 98.1091 53.7715 98.1091 54.4248C98.1091 55.1448 98.2557 55.7582 98.5491 56.2648C98.8558 56.7582 99.2424 57.1382 99.7091 57.4048C100.189 57.6582 100.696 57.7848 101.229 57.7848C101.722 57.7848 102.116 57.7448 102.409 57.6648C102.702 57.5848 102.936 57.4915 103.109 57.3848C103.296 57.2648 103.462 57.1648 103.609 57.0848C103.849 56.9648 104.076 56.9048 104.289 56.9048C104.582 56.9048 104.822 57.0048 105.009 57.2048C105.209 57.4048 105.309 57.6382 105.309 57.9048C105.309 58.2648 105.122 58.5915 104.749 58.8848C104.402 59.1782 103.916 59.4382 103.289 59.6648C102.662 59.8782 102.016 59.9848 101.349 59.9848Z" fill="#0066FF"/>
<path d="M113.826 48.8848C114.813 48.8848 115.559 49.0915 116.066 49.5048C116.586 49.9182 116.939 50.4715 117.126 51.1648C117.326 51.8448 117.426 52.6048 117.426 53.4448V58.5648C117.426 58.9115 117.313 59.2048 117.086 59.4448C116.859 59.6715 116.573 59.7848 116.226 59.7848C115.879 59.7848 115.593 59.6715 115.366 59.4448C115.139 59.2048 115.026 58.9115 115.026 58.5648V53.4448C115.026 53.0048 114.966 52.6115 114.846 52.2648C114.739 51.9048 114.539 51.6182 114.246 51.4048C113.953 51.1915 113.533 51.0848 112.986 51.0848C112.453 51.0848 111.999 51.1915 111.626 51.4048C111.266 51.6182 110.986 51.9048 110.786 52.2648C110.599 52.6115 110.506 53.0048 110.506 53.4448V58.5648C110.506 58.9115 110.393 59.2048 110.166 59.4448C109.939 59.6715 109.653 59.7848 109.306 59.7848C108.959 59.7848 108.673 59.6715 108.446 59.4448C108.219 59.2048 108.106 58.9115 108.106 58.5648V50.3048C108.106 49.9582 108.219 49.6715 108.446 49.4448C108.673 49.2048 108.959 49.0848 109.306 49.0848C109.653 49.0848 109.939 49.2048 110.166 49.4448C110.393 49.6715 110.506 49.9582 110.506 50.3048V51.1648L110.206 51.1048C110.326 50.8782 110.499 50.6382 110.726 50.3848C110.953 50.1182 111.219 49.8715 111.526 49.6448C111.833 49.4182 112.179 49.2382 112.566 49.1048C112.953 48.9582 113.373 48.8848 113.826 48.8848Z" fill="#0066FF"/>
<path d="M120.14 49.2848H124.88C125.2 49.2848 125.467 49.3915 125.68 49.6048C125.893 49.8182 126 50.0848 126 50.4048C126 50.7115 125.893 50.9715 125.68 51.1848C125.467 51.3848 125.2 51.4848 124.88 51.4848H120.14C119.82 51.4848 119.553 51.3782 119.34 51.1648C119.127 50.9515 119.02 50.6848 119.02 50.3648C119.02 50.0582 119.127 49.8048 119.34 49.6048C119.553 49.3915 119.82 49.2848 120.14 49.2848ZM122.28 46.7848C122.627 46.7848 122.907 46.9048 123.12 47.1448C123.347 47.3715 123.46 47.6582 123.46 48.0048V56.9048C123.46 57.0915 123.493 57.2448 123.56 57.3648C123.64 57.4848 123.74 57.5715 123.86 57.6248C123.993 57.6782 124.133 57.7048 124.28 57.7048C124.44 57.7048 124.587 57.6782 124.72 57.6248C124.853 57.5582 125.007 57.5248 125.18 57.5248C125.367 57.5248 125.533 57.6115 125.68 57.7848C125.84 57.9582 125.92 58.1982 125.92 58.5048C125.92 58.8782 125.713 59.1848 125.3 59.4248C124.9 59.6648 124.467 59.7848 124 59.7848C123.72 59.7848 123.407 59.7648 123.06 59.7248C122.727 59.6715 122.407 59.5582 122.1 59.3848C121.807 59.1982 121.56 58.9182 121.36 58.5448C121.16 58.1715 121.06 57.6582 121.06 57.0048V48.0048C121.06 47.6582 121.173 47.3715 121.4 47.1448C121.64 46.9048 121.933 46.7848 122.28 46.7848Z" fill="#0066FF"/>
<path d="M4.70395 49.4848C5.54395 49.4848 6.22395 49.6648 6.74395 50.0248C7.26395 50.3848 7.64395 50.8715 7.88395 51.4848C8.13728 52.0982 8.26395 52.7782 8.26395 53.5248V59.1848C8.26395 59.3448 8.20395 59.4848 8.08395 59.6048C7.96395 59.7248 7.82395 59.7848 7.66395 59.7848C7.47728 59.7848 7.33061 59.7248 7.22395 59.6048C7.11728 59.4848 7.06395 59.3448 7.06395 59.1848V53.5248C7.06395 52.9782 6.97728 52.4848 6.80395 52.0448C6.64395 51.6048 6.37728 51.2582 6.00395 51.0048C5.63061 50.7382 5.13061 50.6048 4.50395 50.6048C3.94395 50.6048 3.41061 50.7382 2.90395 51.0048C2.41061 51.2582 2.01061 51.6048 1.70395 52.0448C1.39728 52.4848 1.24395 52.9782 1.24395 53.5248V59.1848C1.24395 59.3448 1.18395 59.4848 1.06395 59.6048C0.943945 59.7248 0.803945 59.7848 0.643945 59.7848C0.457279 59.7848 0.310612 59.7248 0.203945 59.6048C0.0972787 59.4848 0.0439453 59.3448 0.0439453 59.1848V45.5848C0.0439453 45.4248 0.0972787 45.2848 0.203945 45.1648C0.323945 45.0448 0.470612 44.9848 0.643945 44.9848C0.817279 44.9848 0.957279 45.0448 1.06395 45.1648C1.18395 45.2848 1.24395 45.4248 1.24395 45.5848V52.0648L0.783945 52.7648C0.810612 52.3515 0.937279 51.9515 1.16395 51.5648C1.40395 51.1648 1.71061 50.8115 2.08395 50.5048C2.45728 50.1848 2.87061 49.9382 3.32395 49.7648C3.77728 49.5782 4.23728 49.4848 4.70395 49.4848Z" fill="#6202FF"/>
<path d="M18.9335 49.3848C19.1068 49.3848 19.2468 49.4448 19.3535 49.5648C19.4735 49.6848 19.5335 49.8248 19.5335 49.9848V58.8048C19.5335 59.8848 19.3201 60.7915 18.8935 61.5248C18.4668 62.2715 17.8935 62.8315 17.1735 63.2048C16.4535 63.5915 15.6335 63.7848 14.7135 63.7848C14.1401 63.7848 13.6068 63.7182 13.1135 63.5848C12.6335 63.4648 12.2401 63.3048 11.9335 63.1048C11.7735 63.0115 11.6535 62.8982 11.5735 62.7648C11.4935 62.6315 11.4868 62.4915 11.5535 62.3448C11.6201 62.1582 11.7201 62.0315 11.8535 61.9648C12.0001 61.9115 12.1468 61.9182 12.2935 61.9848C12.5201 62.1048 12.8468 62.2515 13.2735 62.4248C13.7001 62.5982 14.1868 62.6848 14.7335 62.6848C15.4668 62.6848 16.1001 62.5315 16.6335 62.2248C17.1801 61.9182 17.6001 61.4715 17.8935 60.8848C18.1868 60.3115 18.3335 59.6248 18.3335 58.8248V57.3848L18.4735 57.8648C18.2735 58.2782 17.9868 58.6448 17.6135 58.9648C17.2535 59.2848 16.8335 59.5382 16.3535 59.7248C15.8868 59.8982 15.3868 59.9848 14.8535 59.9848C14.0535 59.9848 13.3868 59.8248 12.8535 59.5048C12.3335 59.1715 11.9468 58.7182 11.6935 58.1448C11.4401 57.5715 11.3135 56.8982 11.3135 56.1248V49.9848C11.3135 49.8248 11.3668 49.6848 11.4735 49.5648C11.5801 49.4448 11.7268 49.3848 11.9135 49.3848C12.0868 49.3848 12.2268 49.4448 12.3335 49.5648C12.4535 49.6848 12.5135 49.8248 12.5135 49.9848V55.9448C12.5135 56.8782 12.7135 57.5982 13.1135 58.1048C13.5268 58.6115 14.1935 58.8648 15.1135 58.8648C15.6868 58.8648 16.2135 58.7315 16.6935 58.4648C17.1735 58.1848 17.5668 57.8248 17.8735 57.3848C18.1801 56.9315 18.3335 56.4515 18.3335 55.9448V49.9848C18.3335 49.8248 18.3868 49.6848 18.4935 49.5648C18.6135 49.4448 18.7601 49.3848 18.9335 49.3848Z" fill="#6202FF"/>
<path d="M27.5407 49.4848C28.4473 49.4848 29.2473 49.7115 29.9407 50.1648C30.6473 50.6048 31.2073 51.2182 31.6207 52.0048C32.034 52.7782 32.2407 53.6715 32.2407 54.6848C32.2407 55.6982 32.034 56.5982 31.6207 57.3848C31.2073 58.1715 30.6473 58.7915 29.9407 59.2448C29.234 59.6982 28.4407 59.9248 27.5607 59.9248C27.094 59.9248 26.6473 59.8582 26.2207 59.7248C25.8073 59.5782 25.4273 59.3848 25.0807 59.1448C24.734 58.9048 24.4273 58.6248 24.1607 58.3048C23.894 57.9715 23.6807 57.6115 23.5207 57.2248L23.8807 56.9648V63.1848C23.8807 63.3448 23.8207 63.4848 23.7007 63.6048C23.594 63.7248 23.454 63.7848 23.2807 63.7848C23.1073 63.7848 22.9607 63.7248 22.8407 63.6048C22.734 63.4848 22.6807 63.3448 22.6807 63.1848V50.1448C22.6807 49.9715 22.734 49.8248 22.8407 49.7048C22.9473 49.5848 23.094 49.5248 23.2807 49.5248C23.454 49.5248 23.594 49.5848 23.7007 49.7048C23.8207 49.8248 23.8807 49.9715 23.8807 50.1448V52.3048L23.6007 52.1448C23.734 51.7315 23.9273 51.3648 24.1807 51.0448C24.4473 50.7115 24.754 50.4315 25.1007 50.2048C25.4473 49.9648 25.8273 49.7848 26.2407 49.6648C26.654 49.5448 27.0873 49.4848 27.5407 49.4848ZM27.4407 50.6048C26.7207 50.6048 26.0873 50.7848 25.5407 51.1448C24.994 51.4915 24.5607 51.9715 24.2407 52.5848C23.934 53.1848 23.7807 53.8848 23.7807 54.6848C23.7807 55.4715 23.934 56.1782 24.2407 56.8048C24.5607 57.4315 24.994 57.9248 25.5407 58.2848C26.0873 58.6315 26.7207 58.8048 27.4407 58.8048C28.1473 58.8048 28.7673 58.6315 29.3007 58.2848C29.8473 57.9248 30.2807 57.4315 30.6007 56.8048C30.9207 56.1782 31.0807 55.4715 31.0807 54.6848C31.0807 53.8982 30.9207 53.1982 30.6007 52.5848C30.2807 51.9715 29.8473 51.4915 29.3007 51.1448C28.7673 50.7848 28.1473 50.6048 27.4407 50.6048Z" fill="#6202FF"/>
<path d="M39.4296 59.9848C38.4029 59.9848 37.4962 59.7648 36.7096 59.3248C35.9229 58.8848 35.3096 58.2715 34.8696 57.4848C34.4296 56.6982 34.2096 55.7782 34.2096 54.7248C34.2096 53.5915 34.4296 52.6248 34.8696 51.8248C35.3229 51.0248 35.9029 50.4115 36.6096 49.9848C37.3296 49.5448 38.0896 49.3248 38.8896 49.3248C39.4762 49.3248 40.0429 49.4315 40.5896 49.6448C41.1496 49.8448 41.6429 50.1515 42.0696 50.5648C42.5096 50.9648 42.8562 51.4582 43.1096 52.0448C43.3762 52.6315 43.5229 53.3115 43.5496 54.0848C43.5362 54.2448 43.4696 54.3848 43.3496 54.5048C43.2296 54.6115 43.0896 54.6648 42.9296 54.6648H34.9096L34.6696 53.5848H42.5496L42.2896 53.8248V53.4248C42.2362 52.7982 42.0362 52.2648 41.6896 51.8248C41.3429 51.3848 40.9229 51.0515 40.4296 50.8248C39.9362 50.5982 39.4229 50.4848 38.8896 50.4848C38.4896 50.4848 38.0762 50.5648 37.6496 50.7248C37.2362 50.8848 36.8562 51.1382 36.5096 51.4848C36.1762 51.8182 35.9029 52.2515 35.6896 52.7848C35.4762 53.3048 35.3696 53.9248 35.3696 54.6448C35.3696 55.4315 35.5296 56.1448 35.8496 56.7848C36.1696 57.4248 36.6296 57.9315 37.2296 58.3048C37.8429 58.6782 38.5696 58.8648 39.4096 58.8648C39.8762 58.8648 40.2962 58.7982 40.6696 58.6648C41.0429 58.5315 41.3696 58.3582 41.6496 58.1448C41.9296 57.9182 42.1629 57.6848 42.3496 57.4448C42.4962 57.3248 42.6429 57.2648 42.7896 57.2648C42.9229 57.2648 43.0362 57.3182 43.1296 57.4248C43.2362 57.5315 43.2896 57.6515 43.2896 57.7848C43.2896 57.9448 43.2229 58.0848 43.0896 58.2048C42.6896 58.6848 42.1696 59.1048 41.5296 59.4648C40.8896 59.8115 40.1896 59.9848 39.4296 59.9848Z" fill="#6202FF"/>
<path d="M46.7182 59.7848C46.5315 59.7848 46.3848 59.7248 46.2782 59.6048C46.1715 59.4848 46.1182 59.3448 46.1182 59.1848V50.2248C46.1182 50.0648 46.1715 49.9248 46.2782 49.8048C46.3982 49.6848 46.5448 49.6248 46.7182 49.6248C46.8915 49.6248 47.0315 49.6848 47.1382 49.8048C47.2582 49.9248 47.3182 50.0648 47.3182 50.2248V53.2248L47.0182 53.2848C47.0582 52.8182 47.1715 52.3582 47.3582 51.9048C47.5582 51.4382 47.8248 51.0115 48.1582 50.6248C48.4915 50.2382 48.8848 49.9248 49.3382 49.6848C49.8048 49.4448 50.3248 49.3248 50.8982 49.3248C51.1382 49.3248 51.3715 49.3782 51.5982 49.4848C51.8248 49.5782 51.9382 49.7382 51.9382 49.9648C51.9382 50.1648 51.8848 50.3182 51.7782 50.4248C51.6715 50.5315 51.5448 50.5848 51.3982 50.5848C51.2782 50.5848 51.1448 50.5515 50.9982 50.4848C50.8648 50.4182 50.6848 50.3848 50.4582 50.3848C50.0848 50.3848 49.7115 50.4982 49.3382 50.7248C48.9648 50.9382 48.6248 51.2315 48.3182 51.6048C48.0115 51.9782 47.7648 52.3982 47.5782 52.8648C47.4048 53.3182 47.3182 53.7782 47.3182 54.2448V59.1848C47.3182 59.3448 47.2582 59.4848 47.1382 59.6048C47.0182 59.7248 46.8782 59.7848 46.7182 59.7848Z" fill="#6202FF"/>
<defs>
<linearGradient id="paint0_linear_2470_2144" x1="32.0493" y1="22.2424" x2="91.937" y2="11.1429" gradientUnits="userSpaceOnUse">
<stop stop-color="#6202FF"/>
<stop offset="1" stop-color="#0066FF"/>
</linearGradient>
</defs>
</svg>
